<?xml version="1.0" encoding="iso-8859-1"?>
<!-- Generator: Adobe Illustrator 25.2.0, SVG Export Plug-In . SVG Version: 6.00 Build 0)  -->
<svg version="1.1" id="Layer_1" xmlns="http://www.w3.org/2000/svg" xmlns:xlink="http://www.w3.org/1999/xlink" x="0px" y="0px"
	 width="500px" height="500px" viewBox="0 0 500 500" enable-background="new 0 0 500 500" xml:space="preserve">
<circle fill="#FFFBE6" stroke="#F15A24" stroke-width="2" stroke-miterlimit="10" cx="250" cy="250" r="210.5"/>
<g>
	<g id="XMLID_1_">
		<path fill="#0C697B" d="M444.105,221.063c0.267,0.128,0.395,0.395,0.395,0.789s-0.192,0.789-0.587,1.173
			c-2.101,1.973-4.298,4.725-6.602,8.277c-2.293,3.541-3.445,6.165-3.445,7.872c1.056-0.917,2.293-1.376,3.744-1.376
			c3.413,0,5.12,1.44,5.12,4.33c0,2.752-0.885,4.949-2.656,6.592c-1.781,1.643-3.52,2.464-5.216,2.464
			c-3.946,0-5.909-2.165-5.909-6.496c0-3.808,1.835-8.341,5.514-13.588c3.146-4.725,6.101-7.936,8.853-9.642L444.105,221.063z"/>
		<path fill="#EC5B1A" d="M441.94,287.992c0,3.285-1.376,7.061-4.138,11.327c-2.752,4.266-6.293,7.904-10.623,10.922
			c-1.707,1.184-2.699,1.771-2.954,1.771h-0.203c0-0.256,0.725-1.184,2.176-2.752c7.21-7.744,10.826-13.002,10.826-15.754
			c0-2.357-1.184-3.541-3.552-3.541c-1.173,0-2.229,0.299-3.146,0.885c-0.917,0.587-1.451,0.885-1.579,0.885l-0.587-0.192
			l0.395-1.973c1.184-5.376,3.872-8.074,8.074-8.074C440.17,281.497,441.94,283.662,441.94,287.992z"/>
		<path fill="#EB9F16" d="M433.674,181.684c0,3.285-1.376,7.061-4.138,11.327c-2.752,4.266-6.293,7.904-10.623,10.922
			c-1.707,1.184-2.698,1.771-2.954,1.771h-0.203c0-0.256,0.725-1.173,2.165-2.752c7.221-7.872,10.826-13.119,10.826-15.754
			c0-2.357-1.173-3.541-3.541-3.541c-1.184,0-2.229,0.299-3.146,0.885c-0.917,0.597-1.451,0.885-1.579,0.885l-0.587-0.192
			l0.395-1.973c1.184-5.376,3.861-8.074,8.064-8.074C431.903,175.189,433.674,177.354,433.674,181.684z"/>
		<path fill="#EB9F16" d="M430.528,258.661v0.395l-0.203,0.587c-1.056,0.928-2.133,2.208-3.242,3.84
			c-1.12,1.643-1.675,2.922-1.675,3.84c0.523-0.523,1.173-0.789,1.963-0.789c1.579,0,2.368,0.725,2.368,2.176
			c0,1.312-0.437,2.357-1.28,3.146c-0.853,0.789-1.675,1.184-2.464,1.184c-1.845,0-2.752-1.056-2.752-3.157
			c0-1.835,0.811-3.936,2.453-6.293c1.643-2.368,3.114-3.946,4.437-4.725L430.528,258.661z"/>
		<path fill="#EC5B1A" d="M425.408,216.53c1.696,0,2.56,1.056,2.56,3.157c0,1.568-0.661,3.381-1.973,5.408
			c-1.312,2.037-3.018,3.776-5.12,5.216l-1.376,0.992V231.1l0.981-1.184c3.413-3.797,5.12-6.293,5.12-7.477
			c0-1.184-0.523-1.771-1.579-1.771c-0.651,0-1.173,0.128-1.568,0.395c-0.395,0.267-0.661,0.395-0.789,0.395h-0.192l0.192-0.981
			C422.187,217.853,423.435,216.53,425.408,216.53z"/>
		<path fill="#0C697B" d="M413.889,237.307c3.477,46.92,5.216,72.806,5.216,77.659c0,14.836-2.293,27.892-6.89,39.176
			c-1.579,4.064-2.752,6.101-3.541,6.101c-0.395,0-0.597-0.853-0.597-2.56c0-1.184,0.139-2.88,0.395-5.12
			c0.661-5.12,0.992-11.082,0.992-17.908c0-6.037-1.877-35.304-5.61-87.803c-3.744-52.498-5.61-81.371-5.61-86.619
			c0-6.176-0.928-11.221-2.762-15.167c0-2.485,1.771-7.797,5.312-15.946c0.395-0.907,0.789-1.376,1.184-1.376
			c0.395,0,0.789,0.469,1.184,1.376c1.045,2.24,3.413,8.277,7.082,18.122c5.12,13.247,7.68,20.863,7.68,22.836
			c0,0.917-0.256,1.376-0.789,1.376c-1.173,0-3.669-2.165-7.477-6.496c-0.267-0.267-0.459-0.395-0.587-0.395
			c-0.267,0-0.395,0.523-0.395,1.568C408.673,166.666,410.411,190.388,413.889,237.307z"/>
		<path fill="#EB9F16" d="M398.434,369.502c1.707,0,2.56,0.981,2.56,2.944c0,1.707-0.661,3.552-1.973,5.514
			c-1.312,1.973-3.018,3.744-5.109,5.312l-1.387,0.789c0-0.128,0.331-0.587,0.992-1.376c3.402-3.669,5.12-6.165,5.12-7.477
			c0-1.184-0.533-1.771-1.579-1.771c-0.789,0-1.376,0.192-1.771,0.587l-0.597,0.395l-0.395-0.203l0.395-0.981
			C395.212,370.75,396.46,369.502,398.434,369.502z"/>
		<path fill="#EB9F16" d="M392.727,111.406c0.128,0,0.192,0.139,0.192,0.395c0,0.267-0.128,0.597-0.395,0.992
			c-1.568,1.312-3.178,3.242-4.821,5.802c-1.643,2.56-2.464,4.426-2.464,5.61c0.789-0.651,1.707-0.981,2.763-0.981
			c2.357,0,3.541,1.045,3.541,3.146c0,1.973-0.629,3.541-1.867,4.725c-1.248,1.184-2.528,1.771-3.84,1.771
			c-2.762,0-4.138-1.504-4.138-4.522c0-2.762,1.312-6.037,3.936-9.845c2.229-3.413,4.394-5.706,6.496-6.89L392.727,111.406z"/>
		<path fill="#EC5B1A" d="M381.699,237.009c4.202,57.874,6.304,89.968,6.304,96.261c0,18.506-3.349,33.075-10.047,43.709
			c-5.642,8.927-12.266,13.386-19.881,13.386c-7.082,0-14.303-3.082-21.652-9.258c-3.936-3.402-7.018-7.018-9.247-10.826
			l-21.065,8.863c-9.845,4.202-17.194,7.477-22.047,9.845c-9.589,4.458-16.148,8.063-19.689,10.826
			c-6.57,5.12-16.084,14.89-28.542,29.332c-7.488,8.661-15.039,12.991-22.644,12.991c-6.304,0-11.807-2.891-16.532-8.661
			c-4.864-5.909-7.285-13.13-7.285-21.652c0-6.112,1.28-13.173,3.85-21.183c1.76-0.821,3.52-1.696,5.301-2.624
			c-3.082,9.205-4.629,16.607-4.629,22.228c0,4.992,1.184,8.991,3.541,12.01c2.496,3.274,5.973,4.917,10.442,4.917
			c7.872,0,15.807-4,23.817-11.999l8.661-10.239l6.698-7.882c4.501-5.13,10.015-9.887,16.554-14.271
			c2.997-2.016,6.197-3.946,9.621-5.802c6.304-3.413,17.258-8.394,32.883-14.964l15.551-6.688
			c-2.24-6.037-3.349-12.213-3.349-18.506c0-9.578,1.44-17.332,4.33-23.231c2.763-5.781,6.496-8.661,11.221-8.661
			c4.064,0,7.936,3.477,11.615,10.431c3.285,6.165,4.917,11.679,4.917,16.532c0,12.735-3.733,23.103-11.221,31.102
			c5.248,5.514,11.551,8.277,18.9,8.277c6.165,0,12.138-2.368,17.919-7.093c1.579-1.44,2.357-6.56,2.357-15.348
			c0-5.386-2.229-39.24-6.688-101.583c-4.597-62.343-6.89-96.794-6.89-103.354c0-6.165-0.917-11.221-2.752-15.156
			c0-2.24,1.771-7.488,5.312-15.754c0.395-1.045,0.789-1.579,1.173-1.579c0.395,0,0.789,0.533,1.184,1.579
			c1.056,2.229,3.413,8.202,7.093,17.919c3.936,10.229,6.229,16.532,6.89,18.889c0.395,1.845,0.587,3.221,0.587,4.138
			c0,2.752-2.624,0.981-7.872-5.312c-0.661-0.917-0.981-0.523-0.981,1.173C375.406,150.187,377.496,179.263,381.699,237.009z
			 M345.477,340.16c0-2.091-1.707-5.408-5.12-9.941c-3.413-4.522-6.432-6.784-9.055-6.784c-1.963,0-3.904,1.173-5.802,3.541
			c-1.909,2.357-2.858,4.661-2.858,6.89c0,1.835,1.045,5.056,3.146,9.642c1.835,4.074,3.221,6.762,4.138,8.074
			c2.752-1.184,5.834-2.954,9.247-5.312C343.376,343.381,345.477,341.344,345.477,340.16z"/>
		<path fill="#EC5B1A" d="M376.782,389.778v0.384l-0.203,0.597c-1.045,0.917-2.133,2.197-3.242,3.84
			c-1.12,1.643-1.675,2.912-1.675,3.84c0.523-0.533,1.184-0.789,1.963-0.789c1.579,0,2.368,0.715,2.368,2.165
			c0,1.312-0.427,2.357-1.28,3.146c-0.853,0.789-1.675,1.184-2.464,1.184c-1.835,0-2.752-1.056-2.752-3.146
			c0-1.845,0.821-3.946,2.464-6.304c1.632-2.357,3.114-3.936,4.426-4.725L376.782,389.778z"/>
		<path fill="#EC5B1A" d="M364.569,344.885c1.707,0,2.56,1.056,2.56,3.157c0,1.568-0.651,3.381-1.963,5.408
			c-1.312,2.037-3.018,3.776-5.12,5.216l-1.376,0.992v-0.203l0.981-1.184c3.413-3.797,5.12-6.293,5.12-7.477
			s-0.533-1.771-1.579-1.771c-0.651,0-1.173,0.128-1.568,0.395c-0.395,0.267-0.661,0.395-0.789,0.395h-0.203l0.203-0.981
			C361.358,346.207,362.606,344.885,364.569,344.885z"/>
		<path fill="#EB9F16" d="M360.047,296.461v0.395c0,0.267-0.075,0.459-0.203,0.587c-1.045,0.917-2.133,2.24-3.242,3.936
			c-1.12,1.707-1.675,2.954-1.675,3.744c0.523-0.395,1.184-0.587,1.973-0.587c1.568,0,2.357,0.715,2.357,2.165
			c0,1.312-0.427,2.357-1.28,3.146c-0.853,0.789-1.675,1.184-2.464,1.184c-1.835,0-2.752-0.917-2.752-2.763
			c0-2.091,0.789-4.362,2.357-6.784c1.579-2.432,3.082-4.042,4.533-4.832L360.047,296.461z"/>
		<path fill="#0C697B" d="M358.863,89.562c0,3.541-1.248,7.018-3.744,10.431c-2.485,3.413-5.504,5.12-9.055,5.12
			c-3.669,0-5.504-1.771-5.504-5.322c0-2.485,1.44-6.197,4.33-11.114c2.88-4.928,5.376-7.392,7.477-7.392
			c1.707,0,3.21,0.789,4.533,2.368C358.201,85.231,358.863,87.194,358.863,89.562z M355.716,93.69c0-3.413-2.229-5.12-6.698-5.12
			c-0.651,0-1.739,1.056-3.242,3.157c-1.515,2.101-2.261,3.541-2.261,4.33c0.523,1.173,2.229,1.771,5.109,1.771
			C353.348,97.828,355.716,96.452,355.716,93.69z"/>
		<path fill="#EB9F16" d="M355.716,242.32c0,1.579-1.312,4.266-3.936,8.074c-0.789-1.184-2.635-2.624-5.514-4.33
			c-3.285,4.597-7.477,8.789-12.597,12.597c-5.781,4.202-11.093,7.424-15.946,9.653c-1.056,0.523-6.698,2.624-16.938,6.293
			c-1.568,0.661-2.624,0.981-3.146,0.981c-0.128,0-0.192-0.064-0.192-0.192c0-0.395,0.843-1.184,2.549-2.357l22.644-13.397
			c9.055-5.504,15.818-10.623,20.276-15.348c-5.909-3.018-8.853-6.229-8.853-9.653c0-4.064,1.899-7.808,5.706-11.221
			c3.018-2.624,5.578-3.936,7.68-3.936c3.146,0,4.725,2.368,4.725,7.093c0,3.413-0.661,7.221-1.973,11.413
			C353.092,239.697,354.927,241.147,355.716,242.32z M346.661,236.22c0.395-1.312,0.587-2.624,0.587-3.936
			c0-3.146-1.045-4.725-3.146-4.725c-0.661,0-1.579,0.331-2.762,0.981c-1.173,0.661-1.771,1.312-1.771,1.973
			C339.568,231.953,341.936,233.862,346.661,236.22z"/>
		<path fill="#0C697B" d="M353.946,180.116c0.128,0,0.192,0.128,0.192,0.395c0,0.395-0.128,0.725-0.395,0.981
			c-1.568,1.451-3.178,3.413-4.821,5.909c-1.643,2.496-2.464,4.394-2.464,5.706c0.789-0.651,1.707-0.981,2.763-0.981
			c2.357,0,3.541,1.045,3.541,3.146c0,1.973-0.629,3.541-1.867,4.725c-1.248,1.184-2.528,1.771-3.84,1.771
			c-2.763,0-4.138-1.579-4.138-4.725c0-2.752,1.312-6.037,3.936-9.845c2.229-3.413,4.394-5.706,6.496-6.89L353.946,180.116z"/>
		<path fill="#EC5B1A" d="M350.991,142.903c0,2.368-0.981,5.056-2.954,8.074s-4.522,5.642-7.68,7.872
			c-1.184,0.928-1.899,1.387-2.165,1.387c0-0.267,0.523-0.992,1.579-2.165c5.12-5.514,7.68-9.258,7.68-11.221
			c0-1.707-0.864-2.56-2.56-2.56c-0.917,0-1.675,0.192-2.272,0.587c-0.587,0.395-1.013,0.661-1.28,0.789
			c0-0.128-0.064-0.203-0.192-0.203l0.192-0.981c0.661-4.202,2.56-6.304,5.717-6.304
			C349.679,138.178,350.991,139.756,350.991,142.903z"/>
		<path fill="#0C697B" d="M347.247,397.447c0,0.395-0.192,0.853-0.587,1.387c-2.101,1.963-4.298,4.682-6.592,8.17
			c-2.304,3.466-3.456,6.069-3.456,7.776c1.056-0.789,2.304-1.184,3.744-1.184c3.285,0,4.992,1.44,5.12,4.33
			c0,2.624-0.885,4.789-2.656,6.496c-1.771,1.707-3.509,2.56-5.216,2.56c-3.936,0-5.909-2.165-5.909-6.496
			c0-3.808,1.835-8.341,5.514-13.589c3.146-4.853,6.101-8.138,8.853-9.845l0.597-0.192
			C347.055,396.86,347.247,397.052,347.247,397.447z"/>
		<path fill="#EC5B1A" d="M345.178,279.822c1.771,1.771,2.667,3.914,2.667,6.4c0,2.496-0.896,4.629-2.667,6.4
			s-3.904,2.656-6.389,2.656c-2.496,0-4.629-0.885-6.4-2.656c-1.771-1.771-2.656-3.904-2.656-6.4c0-2.485,0.885-4.629,2.656-6.4
			c1.771-1.771,3.904-2.656,6.4-2.656C341.274,277.166,343.408,278.052,345.178,279.822z"/>
		<path fill="#0C697B" d="M333.072,114.958c0,0.917-0.267,1.376-0.789,1.376c-1.173,0-3.669-2.165-7.477-6.496l-0.395-0.395
			c-0.267,0-0.395,0.587-0.395,1.771c0,0.523,1.12,16.01,3.349,46.461c2.229,30.451,3.349,48.029,3.349,52.754
			c0,14.964-2.304,28.094-6.89,39.379c-1.707,4.202-2.826,6.293-3.349,6.293s-0.789-0.789-0.789-2.357
			c0-1.184,0.203-3.018,0.597-5.514c0.523-5.12,0.779-11.093,0.779-17.919c0-6.165-1.28-27.262-3.84-63.292
			c-2.56-36.019-3.829-56.658-3.829-61.906c0-6.176-0.928-11.221-2.763-15.156c0-2.24,1.771-7.552,5.322-15.956
			c0.384-0.907,0.779-1.376,1.173-1.376c0.661,0,3.477,6.57,8.469,19.689C330.576,105.444,333.072,112.984,333.072,114.958z"/>
		<path fill="#0C697B" d="M324.219,279.822c1.835,1.771,2.752,3.914,2.752,6.4c0,2.496-0.917,4.629-2.752,6.4
			c-1.845,1.771-4.01,2.656-6.496,2.656c-2.368,0-4.437-0.885-6.208-2.656s-2.656-3.904-2.656-6.4c0-2.485,0.885-4.629,2.656-6.4
			c1.771-1.771,3.84-2.656,6.208-2.656C320.209,277.166,322.374,278.052,324.219,279.822z"/>
		<path fill="#EC5B1A" d="M321.852,382.493l-0.192,0.395c-1.056,1.045-2.133,2.389-3.253,4.032c-1.109,1.643-1.675,2.922-1.675,3.84
			c0.523-0.523,1.184-0.789,1.973-0.789c1.579,0,2.357,0.725,2.357,2.165c0,1.312-0.427,2.368-1.28,3.146
			c-0.853,0.789-1.664,1.184-2.453,1.184c-1.973,0-2.954-1.045-2.954-3.146c0-1.835,0.821-3.936,2.464-6.304
			c1.632-2.357,3.114-3.936,4.426-4.725l0.395-0.192C321.788,382.099,321.852,382.227,321.852,382.493z"/>
		<path fill="#EB9F16" d="M309.842,418.715c0,3.274-1.344,7.05-4.032,11.317c-2.688,4.266-6.197,7.904-10.538,10.922
			c-1.835,1.184-2.88,1.781-3.146,1.781c0-0.267,0.725-1.184,2.165-2.762c7.093-7.872,10.634-13.119,10.634-15.743
			c0-2.496-1.12-3.744-3.349-3.744c-1.312,0-2.432,0.32-3.349,0.981c-0.917,0.661-1.44,0.981-1.568,0.981
			c-0.139-0.128-0.331-0.192-0.597-0.192c0.128-0.267,0.267-0.981,0.395-2.165c1.184-5.248,4-7.872,8.469-7.872
			C308.199,412.219,309.842,414.385,309.842,418.715z"/>
		<path fill="#EB9F16" d="M307.282,64.753c0,2.368-0.981,5.056-2.944,8.074c-1.973,3.018-4.533,5.642-7.68,7.872
			c-1.184,0.917-1.909,1.376-2.165,1.376l-0.203-0.192l1.579-1.973c5.248-5.642,7.872-9.375,7.872-11.221
			c0-1.707-0.853-2.56-2.56-2.56c-0.917,0-1.707,0.203-2.357,0.597c-0.661,0.395-1.056,0.587-1.184,0.587h-0.395l0.203-0.981
			c0.779-4.202,2.752-6.304,5.898-6.304C305.97,60.028,307.282,61.606,307.282,64.753z"/>
		<path fill="#EC5B1A" d="M302.759,244.091v0.203c0,0.267-0.064,0.459-0.203,0.587c-1.045,0.917-2.133,2.24-3.242,3.936
			c-1.12,1.707-1.675,2.954-1.675,3.744c0.523-0.395,1.109-0.587,1.771-0.587c1.707,0,2.56,0.715,2.56,2.165
			c0,1.173-0.427,2.197-1.28,3.05c-0.853,0.853-1.739,1.28-2.656,1.28c-1.845,0-2.762-1.056-2.762-3.157
			c0-1.835,0.917-4,2.762-6.496c1.963-3.274,3.477-4.917,4.522-4.917C302.695,243.899,302.759,243.963,302.759,244.091z"/>
		<path fill="#0C697B" d="M301.575,319.489c0,0.267-0.128,0.597-0.395,0.992c-1.568,1.44-3.178,3.413-4.821,5.898
			c-1.643,2.496-2.464,4.405-2.464,5.717c0.789-0.661,1.707-0.992,2.762-0.992c2.357,0,3.541,1.056,3.541,3.157
			c0,1.963-0.629,3.541-1.867,4.725c-1.248,1.173-2.528,1.771-3.84,1.771c-2.762,0-4.138-1.579-4.138-4.725
			c0-2.762,1.312-6.037,3.936-9.845c2.229-3.413,4.394-5.706,6.496-6.89l0.395-0.203
			C301.309,319.094,301.447,319.233,301.575,319.489z"/>
		<path fill="#EC5B1A" d="M300.2,109.443c0.395,1.707,0.587,3.018,0.587,3.936c0,2.89-2.624,1.184-7.872-5.12
			c-0.661-0.917-0.981-0.523-0.981,1.184c0,0.395,0.917,13.055,2.752,37.992c1.835,25.065,2.763,40.755,2.763,47.048
			c0,18.506-3.349,33.075-10.047,43.709c-5.642,8.927-12.266,13.386-19.881,13.386c-0.224,0-0.448,0-0.672-0.021
			c-0.533-7.424-1.003-13.802-1.387-19.167c0.683,0.064,1.376,0.085,2.059,0.085c6.165,0,12.138-2.357,17.919-7.082
			c1.568-1.44,2.357-6.56,2.357-15.359c0-5.642-1.056-23.487-3.146-53.543c-2.24-30.057-3.349-47.709-3.349-52.957
			c0-6.165-0.917-11.221-2.752-15.156c0-2.368,1.771-7.68,5.312-15.946c0.395-1.045,0.789-1.579,1.184-1.579
			c0.395,0,0.789,0.533,1.173,1.579c1.056,2.357,3.413,8.33,7.093,17.908C297.245,100.58,299.538,106.947,300.2,109.443z"/>
		<path fill="#EB9F16" d="M288.19,286.424c1.707,0,2.56,1.045,2.56,3.146c0,1.579-0.661,3.381-1.963,5.418
			c-1.323,2.027-3.029,3.765-5.12,5.216l-1.387,0.981c-0.128-0.128-0.128-0.203,0-0.203c0-0.128,0.331-0.523,0.992-1.173
			c3.402-3.808,5.12-6.368,5.12-7.68c0-1.184-0.533-1.771-1.579-1.771c-0.789,0.128-1.376,0.331-1.771,0.587l-0.597,0.395
			l-0.384-0.192l0.192-0.992C284.905,287.672,286.216,286.424,288.19,286.424z"/>
		<path fill="#0C697B" d="M288.19,397.842c1.707,0,2.56,1.056,2.56,3.157c0,1.568-0.661,3.37-1.963,5.408
			c-1.323,2.037-3.029,3.776-5.12,5.216l-1.387,0.789c0-0.128,0.331-0.587,0.992-1.376c3.402-3.68,5.12-6.176,5.12-7.477
			c0-1.184-0.533-1.781-1.579-1.781c-0.789,0.139-1.376,0.331-1.771,0.597l-0.597,0.395l-0.384-0.203l0.192-0.981
			C284.905,399.089,286.216,397.842,288.19,397.842z"/>
		<path fill="#EC5B1A" d="M275.39,55.697c1.312,1.312,1.973,3.68,1.973,7.082c0,7.488-4.533,16.874-13.589,28.158l-5.504,6.293
			c-1.579,1.845-3.157,3.616-4.725,5.322c-5.386,6.293-9.055,11.487-11.029,15.551c-1.312,2.624-2.101,3.936-2.357,3.936
			c-0.395,0-0.203-1.771,0.587-5.312c0.395-1.973,1.899-5.386,4.522-10.239c2.368-4.458,4.138-7.349,5.322-8.661
			c10.101-11.679,16.202-19.359,18.303-23.039c0.128-0.395,0.203-0.715,0.203-0.981c0-2.229-2.827-3.349-8.469-3.349
			c-9.183,0-30.782,7.946-64.764,23.828c-34.131,15.882-57.426,28.937-69.894,39.176c-0.779,0.651-0.651,1.248,0.395,1.771
			c11.157,6.826,22.121,13.844,32.883,21.065c25.982,17.588,48.946,34.974,68.902,52.167c6.037,5.248,12.074,10.559,18.111,15.946
			c2.88,2.144,5.738,3.861,8.565,5.152c0.373,5.706,0.821,12.383,1.344,20.031c-5.056-1.76-10.058-4.704-15.028-8.842
			c-6.954-6.57-13.919-13.066-20.873-19.497c-1.045-1.045-2.101-2.027-3.146-2.954c-1.056-0.907-1.643-1.376-1.771-1.376
			c-0.395,0-0.192,0.928,0.587,2.762c3.018,6.826,4.533,11.679,4.533,14.57c0,10.762-3.146,18.889-9.45,24.404
			c-4.469,4.074-14.57,9.45-30.313,16.148v-0.203c-9.845,4.202-17.204,7.488-22.057,9.845c-9.578,4.469-16.138,8.074-19.679,10.826
			c-6.57,5.12-16.084,14.9-28.553,29.332c-4.17,4.821-8.33,8.309-12.501,10.442c0.331-2.165,0.821-4.725,1.483-7.68
			c1.568-7.349,2.357-11.285,2.357-11.818c0-0.309-0.021-0.555-0.064-0.757c1.525-1.237,3.061-2.624,4.597-4.16
			c2.88-3.413,5.77-6.762,8.661-10.037c2.229-2.763,4.458-5.45,6.688-8.074c6.57-7.488,15.295-14.175,26.185-20.084
			c6.304-3.413,17.258-8.394,32.883-14.964c16.66-7.082,27.625-12.522,32.873-16.33c1.44-1.184,1.899-2.699,1.376-4.533
			c-2.752-10.239-14.239-23.817-34.451-40.755c-14.836-12.074-29.726-24.073-44.691-36.019c-4.33-3.541-8.725-7.157-13.183-10.826
			c-0.661-0.523-0.992-2.624-0.992-6.304c0-4.725,0.459-9.578,1.387-14.57c1.173-5.642,2.56-9.183,4.128-10.634
			c10.89-9.834,34.121-22.9,69.692-39.166c36.094-16.404,59.911-24.617,71.462-24.617C271.721,53.724,274.079,54.385,275.39,55.697z
			"/>
		<path fill="#0C697B" d="M272.436,146.849c2.496,0,3.744,1.248,3.744,3.733c0,1.312-0.331,2.762-0.981,4.33
			c-0.523,0.928-1.707,2.496-3.541,4.725c-2.634,3.029-4.405,5.194-5.322,6.496c-1.568,1.973-2.496,2.954-2.752,2.954
			c0-0.256,0.256-0.981,0.789-2.165c1.184-3.146,3.797-6.752,7.872-10.826l1.184-1.184c-0.533-1.312-1.376-1.963-2.56-1.963
			c-0.789,0-1.771,0.267-2.954,0.789c-11.679,6.037-22.964,9.055-33.865,9.055c-5.898,0-11.285-1.312-16.138-3.946
			c0.256,0.789,0.395,1.643,0.395,2.56c0,1.707-0.395,3.552-1.184,5.514c-0.395,1.312-0.725,1.973-0.981,1.973
			c-0.139,0-0.203-0.789-0.203-2.368c0-2.752-0.459-5.184-1.376-7.285c0-0.256-1.44-2.421-4.33-6.496
			c0.523-2.88,1.248-4.33,2.165-4.33c0.128,0,0.917,0.597,2.368,1.771c1.44,1.184,3.018,2.165,4.725,2.954
			c4.853,2.634,10.229,3.936,16.138,3.936c6.037,0,11.946-0.853,17.716-2.56c3.285-1.173,7.285-2.88,12.01-5.109
			C268.895,147.702,271.263,146.849,272.436,146.849z"/>
		<path fill="#EB9F16" d="M272.436,211.218c0.395,1.845,0.597,3.221,0.597,4.138c0,0.779-0.267,1.173-0.789,1.173
			c-1.184,0-3.616-2.091-7.285-6.293c-0.267-0.267-0.459-0.395-0.587-0.395c-0.267,0-0.395,0.523-0.395,1.579
			c0,0.309,0.491,7.296,1.483,20.969c-3.509-0.256-7.05-1.205-10.634-2.826c-0.853-13.429-1.28-21.503-1.28-24.255
			c0-6.165-0.992-11.221-2.954-15.156c0-2.229,1.771-7.477,5.312-15.743c0.523-1.056,0.917-1.579,1.184-1.579
			c0.395,0,0.853,0.523,1.376,1.579c1.045,2.101,3.477,8.159,7.285,18.207C269.556,202.654,271.785,208.861,272.436,211.218z"/>
		<path fill="#EB9F16" d="M268.212,270.18c2.816,38.654,4.224,60.402,4.224,65.255c0,14.836-2.229,27.892-6.688,39.176
			c-1.728,3.936-2.869,6.037-3.434,6.282c-0.043,0.011-0.075,0.021-0.107,0.021c-0.395,0-0.597-0.853-0.597-2.56
			c0-1.312,0.139-3.082,0.395-5.312c0.661-5.12,0.992-11.093,0.992-17.919c0-6.037-1.579-31.198-4.725-75.494
			c-0.8-11.274-1.504-21.289-2.101-30.035c3.53,1.248,7.104,1.909,10.677,1.963C267.263,257.168,267.711,263.386,268.212,270.18z"/>
		<path fill="#EB9F16" d="M270.473,112.195l-0.192,0.395c-1.056,0.917-2.144,2.229-3.253,3.936c-1.12,1.707-1.675,3.018-1.675,3.936
			c0.523-0.523,1.12-0.779,1.771-0.779c1.579,0,2.432,0.715,2.56,2.165c0,1.312-0.427,2.357-1.28,3.146
			c-0.853,0.789-1.739,1.184-2.656,1.184c-1.845,0-2.752-1.056-2.752-3.157c0-1.835,0.811-3.936,2.453-6.293
			c1.643-2.368,3.114-4.01,4.437-4.928h0.395C270.409,111.801,270.473,111.939,270.473,112.195z"/>
		<path fill="#EC5B1A" d="M267.711,416.155c0.267,0.128,0.395,0.395,0.395,0.789s-0.192,0.779-0.587,1.173
			c-2.101,1.973-4.298,4.725-6.592,8.277c-2.304,3.541-3.445,6.165-3.445,7.872c1.045-0.917,2.293-1.376,3.744-1.376
			c3.274,0,4.917,1.44,4.917,4.33c0,2.752-0.853,4.949-2.56,6.592s-3.477,2.464-5.312,2.464c-3.808,0-5.717-2.165-5.717-6.496
			c0-3.808,1.771-8.341,5.322-13.589c3.274-4.725,6.293-7.946,9.055-9.642L267.711,416.155z"/>
		<path fill="#EC5B1A" d="M265.46,232.39c0.384,5.365,0.853,11.743,1.387,19.167c-3.573-0.053-7.146-0.715-10.677-1.963
			c-0.523-7.648-0.971-14.324-1.344-20.031C258.41,231.185,261.951,232.134,265.46,232.39z"/>
		<path fill="#0C697B" d="M242.326,308.471c4.064,8.266,6.101,15.423,6.101,21.46c0,11.807-2.699,20.799-8.074,26.964
			c-8.405,9.845-20.735,19.359-37.011,28.553c-1.611,0.896-3.221,1.749-4.821,2.571c0.512-1.525,1.077-3.114,1.675-4.746
			c2.89-7.776,4.789-13.311,5.685-16.596c7.861-4.117,15.146-8.821,21.876-14.111c9.578-7.477,14.367-12.799,14.367-15.946
			c0-0.523-1.963-4.65-5.909-12.405c-4.725-9.183-8.202-18.111-10.431-26.772c-0.917-3.018-2.005-5.013-3.242-6.005
			c-1.248-0.981-1.877-2.069-1.877-3.242c0-0.917,0.917-5.642,2.762-14.175c0.256-1.579,0.651-2.368,1.173-2.368
			c0.523,0,1.12,0.395,1.781,1.184c2.485,2.752,7.733,8.074,15.743,15.946c1.312,1.312,1.973,2.304,1.973,2.954
			c0,0.917-0.789,1.376-2.368,1.376c-1.568,0-4.064-0.459-7.477-1.376C234.508,292.653,237.206,298.232,242.326,308.471z"/>
		<path fill="#EC5B1A" d="M243.894,370.281l0.203,0.203c0,0.267-0.139,0.523-0.395,0.789c-1.056,0.917-2.101,2.229-3.157,3.936
			c-1.045,1.707-1.568,2.954-1.568,3.733c0.523-0.384,1.109-0.587,1.771-0.587c1.579,0,2.357,0.661,2.357,1.973
			s-0.427,2.357-1.28,3.146c-0.853,0.789-1.664,1.184-2.453,1.184c-1.845,0-2.762-0.992-2.762-2.954c0-1.835,0.853-4.064,2.56-6.698
			C241.398,371.859,242.976,370.281,243.894,370.281z"/>
		<path fill="#EC5B1A" d="M241.142,131.885c1.707,0,2.56,1.045,2.56,3.146c0,1.579-0.661,3.381-1.973,5.418
			c-1.312,2.037-3.018,3.776-5.12,5.216l-1.376,0.789c0-0.128,0.331-0.597,0.981-1.387c3.413-3.669,5.12-6.165,5.12-7.477
			c0-1.184-0.523-1.771-1.568-1.771c-0.661,0.128-1.184,0.331-1.579,0.587c-0.395,0.267-0.661,0.395-0.789,0.395l-0.192-0.192
			l0.192-0.981C237.921,133.133,239.169,131.885,241.142,131.885z"/>
		<path fill="#EC5B1A" d="M238.187,252.368c1.707,0,2.56,1.045,2.56,3.146c0,1.579-0.661,3.381-1.973,5.408
			c-1.312,2.037-3.018,3.776-5.12,5.226l-1.376,0.981v-0.203c0-0.128,0.331-0.523,0.992-1.173c3.402-3.808,5.109-6.368,5.109-7.68
			c0-1.184-0.523-1.771-1.568-1.771c-0.661,0.128-1.184,0.331-1.579,0.587c-0.395,0.267-0.661,0.395-0.789,0.395l-0.192-0.192
			l0.192-0.992C234.966,253.616,236.214,252.368,238.187,252.368z"/>
		<path fill="#EC5B1A" d="M236.609,177.748v0.395c0,0.267-0.064,0.469-0.192,0.597c-1.056,0.917-2.133,2.229-3.253,3.936
			c-1.109,1.707-1.675,2.954-1.675,3.733c0.523-0.384,1.184-0.587,1.973-0.587c1.579,0,2.368,0.725,2.368,2.165
			c0,1.312-0.437,2.368-1.28,3.146c-0.864,0.789-1.675,1.184-2.464,1.184c-1.973,0-2.954-1.045-2.954-3.146
			c0-1.835,0.821-3.968,2.464-6.4c1.632-2.432,3.178-4.032,4.618-4.821L236.609,177.748z"/>
		<path fill="#EC5B1A" d="M232.481,99.993c0.256,0,0.395,0.128,0.395,0.395c0,0.789-0.491,2.005-1.483,3.637
			c-0.981,1.643-1.739,2.528-2.261,2.656c-5.386,1.973-15.818,6.698-31.305,14.175c-17.322,8.405-30.974,15.551-40.947,21.46
			c0.523-2.624,1.579-5.578,3.157-8.853c11.413-6.826,26.441-14.378,45.075-22.644C221.516,103.598,230.636,99.993,232.481,99.993z"
			/>
		<path fill="#EC5B1A" d="M223.426,328.161l-0.203,0.384c-1.045,1.056-2.133,2.4-3.242,4.042c-1.12,1.643-1.675,2.922-1.675,3.84
			c0.523-0.523,1.109-0.789,1.771-0.789c1.707,0,2.56,0.725,2.56,2.165c0,1.312-0.427,2.357-1.28,3.146
			c-0.853,0.789-1.739,1.184-2.656,1.184c-1.845,0-2.762-1.045-2.762-3.146c0-1.845,0.821-3.936,2.464-6.304
			c1.643-2.357,3.114-4,4.426-4.917h0.395C223.351,327.766,223.426,327.894,223.426,328.161z"/>
		<path fill="#EB9F16" d="M214.765,399.228c1.696,0,2.56,1.045,2.56,3.146c0,1.568-0.661,3.381-1.973,5.408
			c-1.312,2.037-3.018,3.776-5.12,5.226l-1.376,0.981l-0.203-0.203l1.184-1.173c3.413-3.808,5.12-6.304,5.12-7.488
			s-0.587-1.771-1.771-1.771c-0.523,0-1.024,0.128-1.472,0.395c-0.469,0.267-0.757,0.395-0.896,0.395h-0.192l0.192-0.981
			C211.48,400.529,212.792,399.228,214.765,399.228z"/>
		<path fill="#EC5B1A" d="M211.021,55.111c1.707,0,2.56,1.045,2.56,3.146c0,1.579-0.661,3.381-1.973,5.408
			c-1.312,2.037-3.018,3.776-5.12,5.226l-1.376,0.981V69.67l0.981-1.173c3.413-3.808,5.12-6.304,5.12-7.488
			c0-1.173-0.523-1.771-1.568-1.771c-0.661,0-1.184,0.139-1.579,0.395c-0.395,0.267-0.661,0.395-0.789,0.395l-0.192-0.192
			l0.192-0.992C207.8,56.359,209.048,55.111,211.021,55.111z"/>
		<path fill="#EC5B1A" d="M206.296,362.804c0.128,0,0.192,0.267,0.192,0.789c0,0.565-0.203,1.6-0.608,3.082
			c-1.141,0.597-2.304,1.184-3.477,1.76c0.427-0.885,0.875-1.781,1.333-2.677C204.781,363.785,205.635,362.804,206.296,362.804z"/>
		<path fill="#0C697B" d="M205.88,366.675c-0.896,3.285-2.794,8.821-5.685,16.596c-0.597,1.632-1.163,3.221-1.675,4.746
			c-1.781,0.928-3.541,1.803-5.301,2.624c2.155-6.73,5.216-14.132,9.183-22.207C203.576,367.859,204.739,367.273,205.88,366.675z"/>
		<path fill="#0C697B" d="M204.525,281.891c0.256,0.139,0.395,0.331,0.395,0.587c0,0.661-0.469,1.813-1.376,3.456
			c-0.928,1.632-1.717,2.592-2.368,2.848c-5.386,1.973-15.818,6.698-31.305,14.175c-17.322,8.266-30.974,15.359-40.947,21.257
			c0.661-2.485,1.771-5.376,3.349-8.661c11.285-6.954,26.313-14.495,45.085-22.633C193.763,285.571,202.819,281.891,204.525,281.891
			z"/>
		<path fill="#EB9F16" d="M197.731,316.641c1.771,1.771,2.656,3.904,2.656,6.4s-0.885,4.586-2.656,6.293
			c-1.771,1.707-3.904,2.56-6.4,2.56s-4.597-0.853-6.293-2.56c-1.707-1.707-2.56-3.797-2.56-6.293s0.853-4.629,2.56-6.4
			c1.696-1.771,3.797-2.656,6.293-2.656S195.961,314.871,197.731,316.641z"/>
		<path fill="#0C697B" d="M192.121,373.043c3.52-1.429,6.954-2.965,10.282-4.608c-3.968,8.074-7.029,15.476-9.183,22.207
			c-16.82,7.957-32.67,11.925-47.56,11.925c-24.02,0-40.552-11.743-49.608-35.241c-1.835-4.586-2.752-10.431-2.752-17.514
			c0-4.352,0.331-8.767,1.003-13.237c1.205-0.395,2.411-0.907,3.616-1.525c-0.331,2.165-0.491,3.925-0.491,5.312
			c0,9.717,3.221,18.634,9.653,26.772c8.789,10.901,21.588,16.34,38.387,16.34C160.038,383.474,175.589,379.997,192.121,373.043z"/>
		<path fill="#EC5B1A" d="M192.91,230.119c0,2.357-0.981,5.088-2.954,8.17s-4.522,5.674-7.68,7.776
			c-1.184,0.917-1.899,1.376-2.165,1.376c0-0.256,0.523-0.981,1.579-2.165c5.12-5.514,7.68-9.183,7.68-11.018
			c0-1.845-0.864-2.762-2.56-2.762c-0.928,0-1.675,0.203-2.272,0.587c-0.587,0.395-1.013,0.661-1.28,0.789l-0.192-0.192l0.192-0.789
			c0.661-4.33,2.56-6.496,5.717-6.496C191.598,225.394,192.91,226.972,192.91,230.119z"/>
		<path fill="#0C697B" d="M191.14,141.527l-0.203,0.395c-1.045,1.056-2.133,2.4-3.242,4.032c-1.12,1.653-1.675,2.933-1.675,3.84
			c0.523-0.523,1.109-0.779,1.771-0.779c1.579,0,2.432,0.715,2.56,2.165c0,1.312-0.427,2.357-1.28,3.146
			c-0.853,0.789-1.739,1.184-2.656,1.184c-1.845,0-2.762-1.056-2.762-3.157c0-1.835,0.821-3.936,2.464-6.293
			c1.643-2.368,3.114-3.936,4.426-4.725l0.395-0.203C191.065,141.132,191.14,141.271,191.14,141.527z"/>
		<path fill="#0C697B" d="M183.855,349.215c1.707,0,2.56,1.056,2.56,3.157c0,1.568-0.661,3.381-1.973,5.408
			c-1.312,2.037-3.018,3.84-5.12,5.418l-1.376,0.789c0-0.128,0.331-0.597,0.981-1.376c3.413-3.68,5.12-6.176,5.12-7.488
			c0-1.184-0.523-1.771-1.568-1.771c-0.661,0-1.184,0.128-1.579,0.395c-0.395,0.267-0.661,0.395-0.789,0.395h-0.192l0.192-0.981
			C180.634,350.538,181.882,349.215,183.855,349.215z"/>
		<path fill="#0C697B" d="M182.873,68.497c0,2.752-1.259,5.941-3.744,9.546c-2.496,3.605-4.725,6.069-6.698,7.381l-0.395,0.192
			c-0.256,0-0.384-0.192-0.384-0.587c0-0.256,0.128-0.523,0.384-0.789c1.579-1.44,3.189-3.413,4.832-5.898
			c1.632-2.496,2.453-4.405,2.453-5.717c-0.779,0.661-1.707,0.992-2.752,0.992c-2.368,0-3.541-1.056-3.541-3.157
			c0-1.963,0.619-3.541,1.867-4.725c1.248-1.173,2.528-1.771,3.84-1.771C181.487,63.963,182.873,65.478,182.873,68.497z"/>
		<path fill="#0C697B" d="M174.799,405.916c0,0.267-0.139,0.523-0.395,0.789c-1.579,1.44-3.189,3.413-4.821,5.909
			c-1.643,2.485-2.464,4.394-2.464,5.706c0.789-0.661,1.707-0.981,2.752-0.981c2.368,0,3.552,1.045,3.552,3.146
			c0,1.963-0.629,3.541-1.877,4.725c-1.248,1.184-2.528,1.771-3.84,1.771c-2.752,0-4.128-1.515-4.128-4.533
			c0-2.752,1.312-6.037,3.936-9.834c2.229-3.424,4.394-5.781,6.496-7.093h0.395C174.661,405.521,174.799,405.649,174.799,405.916z"
			/>
		<path fill="#EB9F16" d="M166.928,234.257c0,6.165-1.387,11.221-4.138,15.156c-2.624,4.064-6.176,6.101-10.634,6.101
			c-6.165,0-11.946-2.688-17.322-8.074c-4.202-4.064-7.285-8.597-9.247-13.578c-15.103,9.055-27.102,13.578-36.03,13.578
			c-8.533,0-15.487-1.771-20.873-5.312c-8.394-5.248-12.597-14.111-12.597-26.58c0-11.679,4.853-27.038,14.57-46.066
			c1.045-1.963,1.899-2.954,2.56-2.954c0.267,0.139,0.395,0.395,0.395,0.789c0,0.661-0.203,1.579-0.587,2.762
			c-1.451,3.669-2.89,7.413-4.341,11.221c-0.779,1.835-1.504,3.669-2.165,5.504c-2.101,6.037-3.146,10.965-3.146,14.772
			c0,8.789,2.368,15.423,7.093,19.881c4.853,4.597,11.221,6.89,19.092,6.89c8.533,0,19.028-3.68,31.497-11.029
			c-3.413-10.495-5.781-21.129-7.082-31.891c-0.267-1.835-0.469-2.954-0.597-3.349c-0.395-1.44-1.184-3.018-2.357-4.725l4.33-10.431
			c0.651-1.707,1.248-2.56,1.771-2.56c0.395,0,1.109,0.853,2.165,2.56l11.029,17.716c1.44,2.368,2.165,4.074,2.165,5.12
			c0.128,0.789-0.203,1.184-0.992,1.184c-1.44,0-3.872-1.109-7.285-3.349c0.917,6.698,3.082,15.092,6.496,25.204
			c5.642-2.368,11.818-3.552,18.506-3.552c5.386,0,9.653,2.304,12.799,6.89C165.285,220.732,166.928,226.769,166.928,234.257z
			 M153.147,236.422c2.485,0,3.733-0.661,3.733-1.973c0-1.973-1.771-3.744-5.312-5.312c-1.312-0.523-3.018-0.789-5.12-0.789
			c-2.101,0-4.661,0.267-7.68,0.789C141.927,233.99,146.716,236.422,153.147,236.422z"/>
		<path fill="#EC5B1A" d="M160.038,342.133c0,3.68-1.259,7.189-3.744,10.527c-2.496,3.349-5.514,5.024-9.055,5.024
			c-3.68,0-5.514-1.771-5.514-5.312c0-2.496,1.44-6.165,4.33-11.029c2.89-4.853,5.312-7.285,7.285-7.285
			c1.835,0,3.413,0.757,4.725,2.272C159.376,337.835,160.038,339.765,160.038,342.133z M156.88,346.271
			c0-3.285-2.293-4.928-6.89-4.928c-0.651,0-1.707,1.024-3.146,3.05c-1.451,2.037-2.165,3.52-2.165,4.437
			c0.395,1.045,2.037,1.568,4.917,1.568C154.449,350.399,156.88,349.023,156.88,346.271z"/>
		<path fill="#0C697B" d="M150.779,185.428v0.203c0,0.256-0.064,0.459-0.192,0.587c-1.056,0.917-2.144,2.229-3.253,3.936
			c-1.12,1.707-1.675,2.954-1.675,3.744c0.523-0.395,1.12-0.597,1.771-0.597c1.579,0,2.432,0.661,2.56,1.973
			c0,1.312-0.427,2.368-1.28,3.146c-0.853,0.789-1.739,1.184-2.656,1.184c-1.835,0-2.752-0.981-2.752-2.954
			c0-1.835,0.949-4.192,2.848-7.082c1.909-2.89,3.381-4.33,4.437-4.33C150.715,185.236,150.779,185.3,150.779,185.428z"/>
		<path fill="#EB9F16" d="M139.751,94.287c0,2.357-0.981,5.088-2.944,8.17c-1.973,3.082-4.533,5.674-7.68,7.776
			c-1.184,0.917-1.909,1.376-2.165,1.376c0-0.267,0.523-0.917,1.568-1.973c5.12-5.642,7.68-9.375,7.68-11.221
			c0-1.835-0.853-2.752-2.56-2.752c-0.789,0-1.504,0.224-2.165,0.683c-0.651,0.469-1.109,0.693-1.376,0.693l-0.192-0.192
			l0.192-1.387c0.789-3.936,2.688-5.898,5.706-5.898C138.439,89.562,139.751,91.13,139.751,94.287z"/>
		<path fill="#0C697B" d="M127.848,259.845c1.771,1.835,2.656,3.936,2.656,6.304c0,2.485-0.885,4.618-2.656,6.389
			c-1.771,1.771-3.904,2.667-6.4,2.667c-2.496,0-4.629-0.896-6.4-2.667c-1.771-1.771-2.656-3.904-2.656-6.389
			c0-2.368,0.885-4.469,2.656-6.304c1.771-1.835,3.904-2.752,6.4-2.752C123.944,257.093,126.077,258.01,127.848,259.845z"/>
		<path fill="#EC5B1A" d="M124.989,336.619v0.203c0,0.256-0.064,0.459-0.192,0.587c-1.056,0.917-2.133,2.229-3.253,3.936
			c-1.109,1.707-1.675,2.954-1.675,3.744c0.523-0.395,1.184-0.597,1.973-0.597c1.579,0,2.357,0.725,2.357,2.165
			c0,1.323-0.427,2.368-1.28,3.157c-0.853,0.789-1.739,1.184-2.656,1.184c-1.835,0-2.752-1.056-2.752-3.157
			c0-1.835,0.917-4,2.752-6.496c1.973-3.274,3.477-4.917,4.533-4.917C124.925,336.427,124.989,336.491,124.989,336.619z"/>
		<path fill="#EC5B1A" d="M106.782,259.845c1.771,1.835,2.656,3.936,2.656,6.304c0,2.485-0.885,4.618-2.656,6.389
			c-1.771,1.771-3.904,2.667-6.4,2.667c-2.496,0-4.597-0.896-6.304-2.667c-1.707-1.771-2.549-3.904-2.549-6.389
			c0-2.368,0.843-4.469,2.549-6.304c1.707-1.835,3.808-2.752,6.304-2.752C102.878,257.093,105.012,258.01,106.782,259.845z"/>
		<path fill="#EC5B1A" d="M101.694,314.796c0.043,0.203,0.064,0.448,0.064,0.757c0,0.533-0.789,4.469-2.357,11.818
			c-0.661,2.954-1.152,5.514-1.483,7.68c-1.205,0.619-2.411,1.131-3.616,1.525c0.053-0.384,0.107-0.757,0.171-1.141
			c1.184-7.082,2.826-13.311,4.928-18.698c0.032-0.085,0.053-0.171,0.085-0.256C100.223,315.959,100.959,315.393,101.694,314.796z"
			/>
		<path fill="#0C697B" d="M101.172,314.177c0.267,0,0.437,0.203,0.523,0.619c-0.736,0.597-1.472,1.163-2.208,1.685
			C99.988,314.945,100.543,314.177,101.172,314.177z"/>
		<path fill="#EC5B1A" d="M99.487,316.481c-0.032,0.085-0.053,0.171-0.085,0.256c-2.101,5.386-3.744,11.615-4.928,18.698
			c-0.064,0.384-0.117,0.757-0.171,1.141c-2.101,0.683-4.213,1.024-6.325,1.024c-6.432,0-11.946-2.88-16.532-8.661
			c-4.992-5.898-7.477-13.119-7.477-21.652c0-11.807,4.853-27.166,14.559-46.066c0.917-1.963,1.707-2.954,2.368-2.954
			c0.128,0,0.192,0.267,0.192,0.789c0,1.845-2.101,8.405-6.293,19.689c-4.074,11.413-6.112,20.404-6.112,26.964
			c0,4.992,1.12,8.991,3.349,12.01c2.496,3.285,5.973,4.928,10.431,4.928C88.106,322.646,93.78,320.598,99.487,316.481z"/>
		<path fill="#0C697B" d="M99.199,177.354c0,3.552-1.248,7.029-3.733,10.442c-2.496,3.413-5.514,5.12-9.055,5.12
			c-3.68,0-5.514-1.781-5.514-5.322c0-2.485,1.44-6.165,4.33-11.018c2.88-4.853,5.312-7.285,7.285-7.285
			c1.835,0,3.413,0.757,4.725,2.261C98.548,173.066,99.199,174.997,99.199,177.354z M96.052,181.492c0-3.413-2.293-5.12-6.89-5.12
			c-0.661,0-1.707,1.056-3.146,3.146c-1.451,2.101-2.165,3.552-2.165,4.341c0.395,1.173,2.027,1.771,4.917,1.771
			C93.62,185.631,96.052,184.244,96.052,181.492z"/>
		<path fill="#0C697B" d="M98.025,128.141v0.203l-0.203,0.779c-1.579,1.451-3.178,3.424-4.821,5.909
			c-1.643,2.496-2.464,4.405-2.464,5.706c0.661-0.651,1.579-0.981,2.762-0.981c2.357,0,3.541,1.056,3.541,3.146
			c0,1.973-0.629,3.552-1.867,4.725c-1.259,1.184-2.539,1.781-3.84,1.781c-2.762,0-4.138-1.515-4.138-4.533
			c0-2.752,1.312-6.037,3.936-9.845c2.229-3.413,4.394-5.77,6.496-7.082h0.395C97.951,127.949,98.025,128.013,98.025,128.141z"/>
		<path fill="#EC5B1A" d="M95.658,201.576l-0.192,0.587c-1.056,1.056-2.144,2.4-3.253,4.032c-1.12,1.643-1.675,2.922-1.675,3.84
			c0.523-0.523,1.12-0.789,1.771-0.789c1.579,0,2.368,0.725,2.368,2.176c0,1.312-0.395,2.357-1.184,3.146s-1.643,1.184-2.56,1.184
			c-1.835,0-2.752-1.056-2.752-3.157c0-1.835,0.811-3.936,2.453-6.293c1.643-2.368,3.125-4.01,4.437-4.928h0.192L95.658,201.576z"/>
		<path fill="#EC5B1A" d="M88.373,293.507c1.707,0,2.56,1.056,2.56,3.146c0,1.579-0.661,3.381-1.963,5.418
			c-1.323,2.037-3.029,3.776-5.12,5.216l-1.387,0.789h-0.192l1.184-1.376c3.413-3.68,5.12-6.176,5.12-7.488
			c0-1.173-0.533-1.771-1.579-1.771c-0.661,0-1.216,0.171-1.675,0.491c-0.459,0.331-0.757,0.501-0.885,0.501l-0.192-0.203
			l0.192-0.981C85.088,294.755,86.41,293.507,88.373,293.507z"/>
		<path fill="#0C697B" d="M68.299,255.706c0,2.368-0.992,5.056-2.954,8.074c-1.973,3.018-4.533,5.642-7.68,7.872
			c-1.184,0.928-1.909,1.387-2.165,1.387c0-0.267,0.523-0.992,1.579-2.165c5.109-5.514,7.669-9.258,7.669-11.231
			c0-1.696-0.853-2.549-2.56-2.549c-0.917,0-1.664,0.192-2.261,0.587c-0.587,0.395-1.013,0.661-1.28,0.789
			c0-0.128-0.064-0.203-0.192-0.203v-0.789c0.789-4.33,2.752-6.496,5.898-6.496C66.977,250.981,68.299,252.56,68.299,255.706z"/>
	</g>
</g>
<g>
</g>
<g>
</g>
<g>
</g>
<g>
</g>
<g>
</g>
<g>
</g>
<g>
</g>
<g>
</g>
<g>
</g>
<g>
</g>
<g>
</g>
<g>
</g>
<g>
</g>
<g>
</g>
<g>
</g>
</svg>
