<?xml version="1.0" encoding="UTF-8" standalone="no"?>
<!DOCTYPE svg PUBLIC "-//W3C//DTD SVG 20010904//EN"
              "http://www.w3.org/TR/2001/REC-SVG-20010904/DTD/svg10.dtd">

<svg xmlns="http://www.w3.org/2000/svg"
     width="91.4402mm" height="91.4402mm"
     viewBox="0 0 1080 1080">
  <path id="Selection"
        fill="none" stroke="black" stroke-width="1"
        d="M 178.17,438.70
           C 183.36,437.45 192.35,438.00 198.00,438.00
             198.00,438.00 234.00,438.00 234.00,438.00
             234.00,438.00 350.00,438.00 350.00,438.00
             350.00,438.00 720.00,438.00 720.00,438.00
             720.00,438.00 844.00,438.00 844.00,438.00
             844.00,438.00 868.00,438.00 868.00,438.00
             873.53,438.07 877.75,438.68 880.56,444.09
             882.19,447.24 881.99,450.57 882.00,454.00
             882.00,454.00 882.00,631.00 882.00,631.00
             882.00,631.00 882.00,671.00 882.00,671.00
             881.98,674.74 882.05,678.63 879.35,681.58
             876.05,685.19 870.47,684.99 866.00,685.00
             866.00,685.00 333.00,685.00 333.00,685.00
             333.00,685.00 209.00,685.00 209.00,685.00
             209.00,685.00 184.00,685.00 184.00,685.00
             180.11,684.94 176.45,684.75 173.65,681.61
             170.74,678.34 171.01,674.06 171.00,670.00
             171.00,670.00 171.00,496.00 171.00,496.00
             171.00,496.00 171.00,452.00 171.00,452.00
             171.09,445.55 172.22,441.87 178.17,438.70 Z
           M 463.00,482.00
           C 457.54,483.55 456.83,485.52 452.00,487.24
             452.00,487.24 437.33,490.56 437.33,490.56
             433.60,492.32 428.17,503.00 427.00,507.00
             432.90,505.93 446.37,504.23 450.96,501.59
             456.11,498.62 461.90,487.78 463.00,482.00 Z
           M 490.00,482.00
           C 484.83,484.68 480.03,492.18 479.21,498.00
             479.21,498.00 480.97,530.00 480.97,530.00
             481.02,532.71 482.04,539.75 480.97,541.61
             479.56,543.94 475.45,545.16 473.00,546.00
             465.69,548.50 460.71,549.96 453.00,551.00
             456.31,544.61 459.76,536.33 458.70,529.00
             457.40,520.00 451.69,516.51 444.09,522.56
             434.96,529.82 430.43,546.31 427.93,549.78
             424.58,554.41 416.87,553.37 410.01,559.22
             403.61,564.69 399.39,575.58 395.87,577.72
             393.88,578.93 389.37,580.03 387.00,580.63
             379.04,582.64 357.45,586.15 352.01,589.85
             348.49,592.25 346.34,595.32 344.31,599.00
             342.14,602.94 341.02,605.64 340.00,610.00
             346.70,610.82 346.55,606.73 354.00,604.22
             363.46,601.04 387.24,597.92 393.67,592.36
             398.99,587.77 399.01,580.31 408.00,575.08
             410.84,573.43 424.77,568.93 428.00,568.72
             428.00,568.72 439.00,570.00 439.00,570.00
             447.16,570.10 451.17,569.18 459.00,567.12
             464.75,565.60 474.16,562.24 478.96,558.90
             487.27,553.11 492.64,539.95 492.96,530.00
             492.96,530.00 492.09,520.00 492.09,520.00
             492.09,520.00 490.91,495.00 490.91,495.00
             490.91,495.00 490.00,482.00 490.00,482.00 Z
           M 359.00,489.00
           C 356.39,490.04 351.64,492.00 349.00,492.40
             345.19,493.09 342.67,491.79 340.01,492.40
             335.11,493.39 332.89,498.62 332.00,503.00
             332.00,503.00 337.00,498.00 337.00,498.00
             346.39,501.04 355.42,499.39 359.00,489.00 Z
           M 299.01,509.18
           C 295.31,510.41 289.77,516.01 288.88,520.00
             288.15,523.27 291.64,527.62 295.00,527.66
             297.55,527.70 300.25,524.75 301.82,522.99
             307.14,517.04 308.07,511.63 299.01,509.18 Z
           M 696.00,509.00
           C 696.00,509.00 694.00,509.00 694.00,509.00
             692.06,512.23 687.14,519.75 686.43,523.00
             686.43,523.00 687.83,546.00 687.83,546.00
             687.83,546.00 689.42,574.00 689.42,574.00
             689.98,578.25 689.25,591.80 692.56,593.73
             694.29,594.98 697.18,594.06 699.00,593.73
             699.00,593.73 713.00,590.00 713.00,590.00
             713.00,590.00 711.00,600.00 711.00,600.00
             717.80,594.22 716.45,590.11 721.13,587.65
             721.13,587.65 748.00,579.79 748.00,579.79
             750.99,579.13 758.52,577.93 760.61,576.26
             764.53,573.15 767.03,563.83 768.00,559.00
             756.03,553.42 758.12,539.40 747.00,538.52
             742.77,538.19 738.87,541.20 736.09,544.04
             732.34,547.87 727.76,555.17 725.26,560.00
             723.31,563.77 721.59,568.57 717.90,570.91
             715.35,572.53 704.04,576.26 701.60,574.23
             699.54,572.52 699.86,562.29 699.42,559.00
             699.42,559.00 697.91,533.00 697.91,533.00
             697.91,533.00 696.00,509.00 696.00,509.00 Z
           M 349.00,511.00
           C 341.48,513.46 339.01,522.92 339.00,530.00
             339.00,530.00 342.00,575.00 342.00,575.00
             346.61,572.57 351.40,565.30 351.83,560.00
             351.83,560.00 351.09,552.00 351.09,552.00
             351.09,552.00 349.00,511.00 349.00,511.00 Z
           M 514.00,511.00
           C 506.48,513.46 504.01,522.92 504.00,530.00
             504.00,530.00 507.00,575.00 507.00,575.00
             511.61,572.57 516.40,565.30 516.83,560.00
             516.83,560.00 516.09,552.00 516.09,552.00
             516.09,552.00 514.00,511.00 514.00,511.00 Z
           M 290.00,536.00
           C 282.52,535.39 282.62,540.47 274.00,542.47
             274.00,542.47 254.00,544.46 254.00,544.46
             244.84,546.12 236.20,551.88 230.33,559.00
             221.99,569.11 218.45,589.77 231.01,598.03
             238.41,602.90 247.56,602.09 256.00,602.00
             277.27,601.75 308.36,589.25 319.95,571.00
             326.30,560.98 331.51,547.29 321.00,538.00
             319.07,541.40 314.07,550.45 313.63,554.00
             313.01,559.04 317.08,560.95 314.46,564.79
             312.60,567.54 304.22,571.63 301.00,573.25
             286.80,580.36 275.82,583.49 260.00,584.68
             253.92,585.13 242.15,583.43 237.02,580.03
             234.33,578.26 231.41,575.54 231.87,572.00
             232.15,569.92 233.82,567.60 235.21,566.10
             243.36,557.37 255.51,559.51 266.00,557.67
             277.27,555.69 286.07,546.29 290.00,536.00 Z
           M 621.00,538.00
           C 614.81,538.87 612.18,543.37 603.00,545.33
             592.54,547.57 577.29,542.69 562.00,555.33
             559.22,557.63 555.92,560.97 553.97,564.00
             546.76,575.19 545.78,592.38 559.00,599.59
             567.36,604.14 582.42,603.01 592.00,603.00
             611.41,602.97 645.77,591.47 658.82,576.99
             666.96,567.94 669.80,557.20 664.19,546.00
             662.19,542.01 661.00,540.08 657.00,538.00
             657.00,538.00 651.41,552.00 651.41,552.00
             651.41,552.00 658.00,566.00 658.00,566.00
             658.00,566.00 649.00,570.63 649.00,570.63
             649.00,570.63 635.00,576.58 635.00,576.58
             621.02,581.85 596.94,586.43 582.00,586.43
             576.10,586.43 566.71,585.37 562.05,581.58
             558.72,578.87 556.39,575.15 558.78,571.00
             563.33,563.10 572.87,561.71 581.00,560.84
             593.96,559.45 605.13,560.72 614.82,549.98
             618.33,546.09 620.03,543.11 621.00,538.00 Z
           M 823.00,559.00
           C 823.00,559.00 819.00,558.00 819.00,558.00
             817.13,562.18 815.34,565.62 811.91,568.79
             806.26,574.00 789.75,579.36 782.00,581.57
             775.30,583.49 767.40,584.28 762.21,589.33
             757.15,594.25 756.06,602.29 756.00,609.00
             764.11,607.66 760.56,604.37 772.00,600.34
             782.41,596.68 803.34,591.72 810.82,584.67
             816.41,579.40 821.46,566.55 823.00,559.00 Z
           M 618.09,611.45
           C 612.67,611.81 604.01,621.50 608.33,626.94
             609.17,627.99 610.68,629.33 612.00,629.66
             615.05,630.44 618.02,627.02 619.82,625.00
             624.97,619.21 625.48,615.45 618.09,611.45 Z
           M 677.00,624.00
           C 671.18,626.21 668.67,625.46 667.00,632.00
             673.01,630.77 675.38,630.35 677.00,624.00 Z
           M 686.00,624.00
           C 678.30,632.36 689.41,641.59 675.00,644.00
             675.49,641.87 676.77,636.27 672.90,636.34
             669.40,636.40 667.89,641.98 665.51,644.20
             665.51,644.20 654.91,651.98 654.91,651.98
             648.00,654.89 643.01,652.62 641.00,662.00
             641.00,662.00 655.83,656.84 655.83,656.84
             658.83,655.15 660.04,652.36 665.00,650.80
             671.21,648.85 679.81,652.14 684.99,643.96
             688.20,638.89 686.00,630.20 686.00,624.00 Z
           M 647.00,626.00
           C 642.73,627.19 641.29,626.93 639.00,631.00
             643.09,629.76 644.70,629.84 647.00,626.00 Z
           M 518.00,628.00
           C 512.37,634.78 517.04,639.39 513.40,643.31
             513.40,643.31 500.91,651.98 500.91,651.98
             494.00,654.89 489.01,652.62 487.00,662.00
             487.00,662.00 501.91,656.84 501.91,656.84
             501.91,656.84 508.09,652.08 508.09,652.08
             511.14,650.20 514.66,649.96 516.83,645.95
             518.63,642.60 518.00,632.21 518.00,628.00 Z
           M 333.00,629.00
           C 327.27,631.57 325.27,631.27 322.00,637.00
             328.48,636.45 331.52,635.88 333.00,629.00 Z
           M 342.00,629.00
           C 342.00,629.00 340.00,629.00 340.00,629.00
             340.00,629.00 337.40,645.57 337.40,645.57
             337.40,645.57 330.00,649.00 330.00,649.00
             331.47,644.31 331.93,643.66 330.00,639.00
             320.67,643.53 326.13,647.07 317.00,651.00
             317.00,645.03 318.04,637.23 315.00,632.00
             309.96,642.87 317.47,647.98 306.00,651.00
             306.00,651.00 307.00,649.00 307.00,649.00
             307.00,649.00 306.00,648.00 306.00,648.00
             298.54,651.16 281.16,658.25 276.00,649.00
             276.00,649.00 283.00,647.32 283.00,647.32
             289.09,646.24 291.92,646.91 294.00,640.00
             289.13,641.87 278.94,643.37 276.23,645.65
             272.01,649.19 271.42,657.49 278.04,658.77
             286.31,660.37 295.79,657.99 303.00,654.00
             303.00,654.00 303.00,658.00 303.00,658.00
             303.00,658.00 314.00,653.00 314.00,653.00
             314.00,653.00 313.00,657.00 313.00,657.00
             313.00,657.00 314.00,658.00 314.00,658.00
             316.37,657.06 319.56,655.70 322.00,655.21
             330.06,653.58 340.66,654.98 342.66,644.00
             342.66,644.00 342.00,629.00 342.00,629.00 Z
           M 470.00,631.00
           C 464.57,631.07 460.62,631.41 458.10,637.04
             456.74,640.05 457.66,641.46 455.61,645.00
             451.40,652.28 449.24,651.36 449.00,661.00
             458.75,660.97 470.48,658.30 474.00,648.00
             465.56,651.52 462.32,656.12 452.00,655.00
             458.50,643.90 467.70,643.08 470.00,631.00 Z
           M 349.00,632.00
           C 349.00,632.00 347.00,632.00 347.00,632.00
             345.82,636.85 345.17,646.38 347.00,651.00
             349.88,644.78 349.00,638.74 349.00,632.00 Z
           M 372.00,632.00
           C 366.28,633.51 364.25,633.87 361.00,639.00
             367.28,638.84 369.79,638.32 372.00,632.00 Z
           M 405.00,632.00
           C 405.00,632.00 403.00,632.00 403.00,632.00
             401.82,636.85 401.17,646.38 403.00,651.00
             405.88,644.78 405.00,638.74 405.00,632.00 Z
           M 525.00,632.00
           C 525.00,632.00 523.00,632.00 523.00,632.00
             521.82,636.85 521.17,646.38 523.00,651.00
             525.88,644.78 525.00,638.74 525.00,632.00 Z
           M 631.00,632.00
           C 631.00,632.00 626.00,637.00 626.00,637.00
             626.00,637.00 630.00,638.00 630.00,638.00
             630.00,638.00 632.00,633.00 632.00,633.00
             632.00,633.00 631.00,632.00 631.00,632.00 Z
           M 645.00,632.00
           C 645.00,632.00 643.00,632.00 643.00,632.00
             641.82,636.85 641.17,646.38 643.00,651.00
             645.88,644.78 645.00,638.74 645.00,632.00 Z
           M 693.00,632.00
           C 693.00,632.00 691.00,632.00 691.00,632.00
             689.82,636.85 689.17,646.38 691.00,651.00
             693.88,644.78 693.00,638.74 693.00,632.00 Z
           M 745.00,632.00
           C 739.51,637.96 742.99,650.25 743.00,658.00
             743.00,658.00 749.00,656.00 749.00,656.00
             749.00,656.00 750.00,659.00 750.00,659.00
             756.20,651.95 760.00,654.94 763.55,651.44
             767.63,647.41 761.93,640.82 758.08,641.74
             753.45,642.85 755.14,647.82 746.00,652.00
             746.00,652.00 745.00,632.00 745.00,632.00 Z
           M 540.00,634.00
           C 540.00,634.00 535.00,639.00 535.00,639.00
             539.35,639.55 540.55,638.35 540.00,634.00 Z
           M 562.00,634.00
           C 555.09,641.05 561.23,644.91 558.81,649.61
             557.33,652.49 551.87,653.66 549.21,655.41
             546.41,657.26 545.92,658.97 545.00,662.00
             550.22,660.26 558.98,657.32 562.96,653.79
             567.54,649.72 568.93,645.06 573.00,641.00
             573.00,641.00 574.00,654.00 574.00,654.00
             578.08,652.64 584.77,651.00 587.57,647.78
             590.64,644.25 589.66,640.63 586.96,640.63
             583.63,640.62 583.94,644.57 577.00,647.00
             577.00,647.00 575.00,634.00 575.00,634.00
             570.06,636.60 567.39,642.11 565.00,647.00
             565.00,647.00 562.00,634.00 562.00,634.00 Z
           M 626.00,639.00
           C 617.48,643.29 618.17,641.10 614.00,642.74
             606.35,645.74 605.00,655.83 610.23,658.26
             619.65,662.66 643.93,652.14 635.00,640.00
             633.31,643.74 633.09,643.97 634.00,648.00
             628.87,650.21 622.73,653.59 617.00,653.41
             614.96,653.35 610.22,652.31 611.91,649.24
             613.43,646.49 618.48,646.52 620.98,645.44
             624.35,643.98 625.03,642.27 626.00,639.00 Z
           M 724.00,640.00
           C 714.70,643.57 713.77,642.41 710.00,643.65
             701.66,646.39 701.57,655.27 706.15,657.98
             708.29,659.24 712.50,659.02 715.00,659.00
             722.32,658.91 735.81,655.64 737.25,647.00
             737.64,644.61 736.70,642.23 736.00,640.00
             732.63,643.46 733.25,644.47 734.00,649.00
             726.39,651.05 711.10,658.14 706.00,649.00
             706.00,649.00 713.00,647.32 713.00,647.32
             719.09,646.24 721.92,646.91 724.00,640.00 Z
           M 382.00,659.00
           C 388.20,651.95 392.00,654.94 395.55,651.44
             399.63,647.41 393.93,640.82 390.08,641.74
             385.45,642.85 387.14,647.82 378.00,652.00
             378.00,652.00 378.00,642.00 378.00,642.00
             370.97,642.06 364.01,643.49 360.01,650.04
             359.25,651.28 358.39,653.20 358.81,654.69
             360.41,660.36 372.32,654.82 375.00,653.00
             375.00,653.00 375.00,658.00 375.00,658.00
             375.00,658.00 381.00,656.00 381.00,656.00
             381.00,656.00 382.00,659.00 382.00,659.00 Z
           M 604.00,643.00
           C 599.07,643.27 598.03,646.24 603.00,648.00
             603.00,648.00 604.00,643.00 604.00,643.00 Z
           M 422.00,663.00
           C 427.33,660.30 436.96,658.24 439.92,653.81
             441.81,651.43 443.06,645.84 439.92,644.17
             436.08,642.34 435.26,647.78 435.00,650.00
             435.00,650.00 439.00,651.00 439.00,651.00
             431.44,654.01 423.29,653.85 422.00,663.00 Z
           M 470.00,663.00
           C 475.33,660.30 484.96,658.24 487.92,653.81
             489.81,651.43 491.06,645.84 487.92,644.17
             484.08,642.34 483.26,647.78 483.00,650.00
             483.00,650.00 487.00,651.00 487.00,651.00
             479.44,654.01 471.29,653.85 470.00,663.00 Z
           M 527.00,660.00
           C 532.69,658.47 544.21,655.13 542.63,647.11
             542.01,643.93 536.55,639.94 533.00,648.00
             533.00,648.00 539.00,650.00 539.00,650.00
             532.82,653.17 529.49,652.79 527.00,660.00 Z
           M 422.00,646.00
           C 422.00,646.00 420.00,646.00 420.00,646.00
             411.65,656.83 403.01,649.53 402.00,662.00
             411.30,657.12 419.20,657.77 422.00,646.00 Z
           M 783.00,646.00
           C 783.00,646.00 781.00,646.00 781.00,646.00
             772.65,656.83 764.01,649.53 763.00,662.00
             772.30,657.12 780.20,657.77 783.00,646.00 Z
           M 603.00,657.00
           C 603.65,653.14 603.85,652.36 600.00,651.00
             599.35,654.86 599.15,655.64 603.00,657.00 Z
           M 294.00,663.00
           C 294.00,663.00 290.00,661.00 290.00,661.00
             290.00,661.00 288.00,666.00 288.00,666.00
             288.00,666.00 292.00,667.00 292.00,667.00
             292.00,667.00 294.00,663.00 294.00,663.00 Z
           M 724.00,662.00
           C 724.00,662.00 719.00,666.00 719.00,666.00
             719.00,666.00 723.00,668.00 723.00,668.00
             723.00,668.00 725.00,663.00 725.00,663.00
             725.00,663.00 724.00,662.00 724.00,662.00 Z" />
</svg>
